<?xml version="1.0" encoding="utf-8"?>
<!-- Generator: Adobe Illustrator 23.0.1, SVG Export Plug-In . SVG Version: 6.00 Build 0)  -->
<svg version="1.1" id="Layer_1" xmlns="http://www.w3.org/2000/svg" xmlns:xlink="http://www.w3.org/1999/xlink" x="0px" y="0px"
	 viewBox="0 0 257 257" style="enable-background:new 0 0 257 257;" xml:space="preserve">
<style type="text/css">
	.st0{fill-rule:evenodd;clip-rule:evenodd;fill:#47848F;}
	.st1{fill:#47848F;}
</style>
<title>logox</title>
<path class="st0" d="M98,129.2c3.7,1.9,8.2,3,12.8,2.9c5.3-0.3,4.9-2.3,4.5-3.2c-0.9-0.6-2.1-0.8-3.3-0.6v2.9
	c-2.4,0.5-5.1,0.5-7.5-0.2v-5.2h13.8c2.1,0.1,3.7,1.6,3.5,3.2v0.9c-0.4,1.5-2.4,4.5-9.7,4.7c-4.8-0.2-9.3-1.4-13.1-3.5
	C99,130.2,98.4,129.7,98,129.2C97.6,129.1,97.6,128.8,98,129.2L98,129.2z"/>
<g>
	<path class="st1" d="M228.5,129.6c21-24,28.3-48.1,18.2-64.9c-7.4-12.4-23.2-18.9-44-19.3c-1.8-0.1-3.3,1.2-3.4,3
		c-0.1,1.8,1.2,3.3,2.9,3.4h0.6c18.9,0.2,32.3,5.9,38.4,16.1c8.3,14.1,1.8,35.5-17.6,57.6c-1.2,1.3-1.1,3.2,0.2,4.4l0,0l0,0
		C225.2,131,227.3,130.9,228.5,129.6L228.5,129.6z"/>
	<g>
		<path class="st1" d="M84.3,47.5c-28.9-5.7-51.7,0.2-60.9,17c-6.8,12.5-4.9,29.1,4.8,46.8c0.7,1.4,2.4,2,3.8,1.3l0,0h0.2
			c1.4-0.9,1.9-2.8,1.1-4.3c-8.6-16-10.2-30.3-4.8-40.4c7.6-14.2,27.8-19.4,54.7-14.2c1.7,0.2,3.2-0.8,3.4-2.5l0,0
			c0.4-1.7-0.7-3.3-2.4-3.7l0,0H84.3z"/>
		<g>
			<path class="st1" d="M40.8,137.2c11.5,15.5,25.3,29.1,41,40.3c39.8,29,83.6,39.4,106.9,25.2c1.4-0.9,1.9-2.8,1.1-4.3
				c-0.7-1.4-2.4-2-3.8-1.3h-0.2c-21,12.8-62.8,2.9-100.8-24.6c-15.1-10.9-28.5-24.1-39.6-39.1c-1-1.2-2.6-1.4-3.9-0.6l-0.2,0.1
				C40,134,39.8,136,40.8,137.2L40.8,137.2L40.8,137.2z"/>
			<path class="st1" d="M217.4,193.7c0.6-8.4-5.8-15.7-14.3-16.3l0,0c-8.6-0.8-16.3,5.4-17.1,13.9c-0.6,8.4,5.8,15.7,14.3,16.3l0,0
				C208.9,208.4,216.5,202.3,217.4,193.7C217.2,193.9,217.4,193.7,217.4,193.7z"/>
		</g>
	</g>
	<path class="st1" d="M161.5,47.2c-18.8,2.1-37.2,7.4-54.2,15.7C61.6,84.5,28.1,121.5,27,151.7c-0.2,1.5,0.7,3,2.3,3.3
		c0.1,0,0.2,0,0.2,0l0,0c1.8-0.2,3.1-1.7,3.1-3.4l0,0c0.8-26.8,32.6-61.8,76.3-82.5c16.5-8,34.4-13.1,52.8-15.1
		c1.8-0.2,3-1.8,2.9-3.5c0.1-1.5-1.1-3-2.6-3.1L161.5,47.2L161.5,47.2z"/>
	<path class="st1" d="M27.8,181.6c8.4,1,16.4-4.9,18-13.3c1.6-8.3-4-16.1-12.3-17.1s-16.6,4.8-18,13.4s3.9,16.1,12.3,17.2V181.6z"/>
	<path class="st1" d="M67.2,199.8c11.2,29.5,29.1,47.9,49.3,47.9c14.7,0,28.4-9.7,39-26.8c1-1.4,0.5-3.4-1-4.4l0,0
		c-1.5-0.9-3.6-0.5-4.5,1.1c-9.6,15.2-21.4,23.5-33.5,23.5c-16.8,0-32.8-16.3-42.9-43.6c-0.7-1.7-2.6-2.4-4.3-1.8
		C67.6,196.3,66.8,198.1,67.2,199.8L67.2,199.8L67.2,199.8L67.2,199.8z"/>
	<path class="st1" d="M173.7,195.3c9.9-17.5,16.9-36.3,21-55.9c11.1-51.5,2-99.6-22.1-116.3c-1.4-1.1-3.6-0.7-4.6,0.7
		c-1.1,1.4-0.7,3.3,0.6,4.4l0,0l0,0c21.6,14.9,30.2,60.6,19.6,110c-3.9,18.9-10.8,37.2-20.3,54.1c-0.8,1.4-0.4,3.3,1.1,4.3l0,0l0,0
		c1.5,0.8,3.6,0.4,4.5-1.2L173.7,195.3z"/>
	<path class="st1" d="M156,35.6c8.4,1.8,16.6-3.4,18.5-11.8c1.7-8.2-3.7-16.2-11.9-17.8h-0.4c-8.4-1.8-16.6,3.4-18.5,11.8
		c-1.7,8.2,3.6,16.2,11.9,18l0,0L156,35.6z"/>
	<path class="st0" d="M104.7,144.3v-9.5c2.1,1.1,4.6,1.5,7,1.4v4.6c2.1,0.1,4-1.4,4.2-3.5v-0.1c0-0.4,0-0.6,0-0.9
		c0.6,0,4.3-1.1,5-2.8c2.1,0.9,3.2,3.4,2.3,5.7l-0.1,0.4c0,0.1,0,0.1,0,0.2c-1.2,2.6-3.8,4.4-6.7,4.5L104.7,144.3z"/>
	<path class="st0" d="M123.1,125.8h7.6v10.3h6.7v8.5h-14.7v-2.5c1.7-2.4,1.7-5.4,0-7.7v-8.5L123.1,125.8z"/>
	<path class="st0" d="M98,129.2c1.5,0.8,3.3,1.5,5,2.1v-5.9h-3.3l19.3-17.6c0,0,12.1-2.8,15.9,4.5c0.7,2.1,1.3,5.3-2,6.3
		c0.1-2.7-1.9-5-4.6-5.2l0,0c-1.2-0.1-2.4,0.1-3.3,0.7c-2.5,0.8-3.9,3.3-3.3,5.8c2,3.8,6.4,5.8,10.6,4.7c5.6-0.1,10.3-4,11.5-9.5
		c-0.1-4.4-2-8.4-5.3-11.2l-16-17.3l-1.1-1.1l-46.6,39.8V144h28.5v-10.2C103.1,134.2,98.5,131.7,98,129.2
		C97.8,129.6,97.4,129.2,98,129.2z"/>
	<path class="st0" d="M139.5,125.8H169v18.6l-45.9,40.3L105,166.2c0,0-9-8-3.7-16.1c4.6-5.2,12.5-6.5,18.5-2.8
		c2.3,1.3,3,4.3,1.7,6.5c-0.1,0.1-0.1,0.2-0.2,0.4l0,0c-0.4,0.6-1,1.2-1.7,1.4c-2.9,1.4-6.2,0.5-8-2.1c-0.4-0.8-0.6-1.7-0.7-2.5
		c-4.3,0.4-5.5,14.1,13.9,10.8l18.9-17.5h-4.4v-18.4L139.5,125.8L139.5,125.8z"/>
</g>
</svg>
