<?xml version="1.0" encoding="utf-8"?>
<!-- Generator: Adobe Illustrator 23.0.1, SVG Export Plug-In . SVG Version: 6.00 Build 0)  -->
<svg version="1.1" id="Layer_1" xmlns="http://www.w3.org/2000/svg" xmlns:xlink="http://www.w3.org/1999/xlink" x="0px" y="0px"
	 viewBox="0 0 257 257" style="enable-background:new 0 0 257 257;" xml:space="preserve">
<style type="text/css">
	.st0{fill:#1E1E1E;}
	.st1{fill:#47848F;}
	.st2{fill-rule:evenodd;clip-rule:evenodd;fill:#47848F;}
</style>
<path class="st0" d="M130.8,249.7h-6.3c-67.2,0-121.7-54.5-121.7-121.7v0C2.8,60.7,57.3,6.2,124.5,6.2h6.3
	c67.2,0,121.7,54.5,121.7,121.7v0C252.5,195.2,198,249.7,130.8,249.7z"/>
<title>logox</title>
<path class="st1" d="M213.4,129.1c17.7-20.3,23.8-40.7,15.3-54.9c-6.2-10.5-19.5-16-37-16.3c-1.5-0.1-2.8,1-2.9,2.5
	c-0.1,1.5,1,2.8,2.4,2.9h0.5c15.9,0.2,27.2,5,32.3,13.6c7,11.9,1.5,30-14.8,48.7c-1,1.1-0.9,2.7,0.2,3.7c0,0,0,0,0,0l0,0
	C210.6,130.3,212.4,130.2,213.4,129.1L213.4,129.1z"/>
<path class="st1" d="M94.1,59.7c-24.3-4.8-43.5,0.2-51.2,14.4c-5.7,10.6-4.1,24.6,4,39.6c0.6,1.2,2,1.7,3.2,1.1c0,0,0,0,0,0h0.2
	c1.2-0.8,1.6-2.4,0.9-3.6c-7.2-13.5-8.6-25.6-4-34.2C53.6,65,70.6,60.6,93.2,65c1.4,0.2,2.7-0.7,2.9-2.1l0,0c0.3-1.4-0.6-2.8-2-3.1
	L94.1,59.7z"/>
<path class="st1" d="M55.5,135.6c9.7,13.1,21.3,24.6,34.5,34.1c33.5,24.5,70.3,33.3,89.9,21.3c1.2-0.8,1.6-2.4,0.9-3.6
	c-0.6-1.2-2-1.7-3.2-1.1h-0.2c-17.6,10.8-52.8,2.4-84.7-20.9c-12.7-9.2-24-20.4-33.3-33.1c-0.8-1-2.2-1.2-3.3-0.5l-0.2,0.1
	c-1.1,0.9-1.3,2.6-0.5,3.7l0,0L55.5,135.6z"/>
<path class="st1" d="M206,184.4c0.5-7.1-4.9-13.3-12-13.8l0,0c-7.2-0.7-13.7,4.6-14.4,11.8c-0.5,7.1,4.9,13.3,12,13.8l0,0
	c7.2,0.7,13.6-4.5,14.4-11.7C205.9,184.5,206,184.4,206,184.4z"/>
<path class="st1" d="M157,59.4c-15.8,1.8-31.3,6.3-45.6,13.3C73,91,44.8,122.3,43.9,147.8c-0.2,1.3,0.6,2.5,1.9,2.8
	c0.1,0,0.2,0,0.2,0l0,0c1.5-0.2,2.6-1.4,2.6-2.9l0,0c0.7-22.7,27.4-52.3,64.2-69.8c13.9-6.8,28.9-11.1,44.4-12.8
	c1.5-0.2,2.5-1.5,2.4-3c0.1-1.3-0.9-2.5-2.2-2.6L157,59.4L157,59.4z"/>
<path class="st1" d="M42.7,173.6c6.3,0.9,12.3-4.3,13.5-11.6s-3-14.1-9.2-15s-12.4,4.2-13.5,11.7c-1.1,7.5,2.9,14.1,9.2,15.1
	L42.7,173.6z"/>
<path class="st1" d="M77.7,188.5c9.4,25,24.5,40.5,41.5,40.5c12.4,0,23.9-8.2,32.8-22.7c0.8-1.2,0.4-2.9-0.8-3.7l0,0
	c-1.3-0.8-3-0.4-3.8,0.9c-8.1,12.9-18,19.9-28.2,19.9c-14.1,0-27.6-13.8-36.1-36.9c-0.6-1.4-2.2-2-3.6-1.5c-1.4,0.5-2.1,2-1.7,3.4
	l0,0l0,0L77.7,188.5z"/>
<path class="st1" d="M167.3,184.7c8.3-14.8,14.2-30.7,17.7-47.3c9.3-43.6,1.7-84.3-18.6-98.4c-1.2-0.9-3-0.6-3.9,0.6
	c-0.9,1.2-0.6,2.8,0.5,3.7l0,0l0,0c18.2,12.6,25.4,51.3,16.5,93.1c-3.3,16-9.1,31.5-17.1,45.8c-0.7,1.2-0.3,2.8,0.9,3.6c0,0,0,0,0,0
	l0,0c1.3,0.7,3,0.3,3.8-1L167.3,184.7z"/>
<path class="st1" d="M152.4,49.6c7.1,1.5,14-2.9,15.6-10c1.4-6.9-3.1-13.7-10-15.1h-0.3c-7.1-1.5-14,2.9-15.6,10
	c-1.4,6.9,3,13.7,10,15.2c0,0,0,0,0,0L152.4,49.6z"/>
<path class="st1" d="M153.5,44.2c-4-0.7-6.7-4.6-6-8.6c0,0,0,0,0-0.1v-0.1c0.9-4.1,5-6.7,9.1-5.8c4,0.8,6.7,4.6,6,8.7v0.1l0,0
	C161.6,42.5,157.6,45,153.5,44.2z"/>
<path class="st2" d="M104,129.5c2.9,2,6.5,3.1,10.1,3c4.2-0.3,3.9-2.4,3.6-3.3c-0.7-0.6-1.7-0.8-2.6-0.6v3c-1.9,0.5-4,0.5-5.9-0.2
	v-5.4h10.9c1.7,0.1,2.9,1.6,2.8,3.3v0.9c-0.3,1.5-1.9,4.6-7.7,4.8c-3.8-0.2-7.4-1.4-10.4-3.6C104.8,130.6,104.3,130,104,129.5
	C103.7,129.4,103.7,129.1,104,129.5L104,129.5z"/>
<path class="st2" d="M109.2,141.6v-8c1.8,0.9,3.9,1.3,5.9,1.2v3.9c1.8,0.1,3.4-1.2,3.5-3c0,0,0-0.1,0-0.1c0-0.3,0-0.5,0-0.8
	c0.5,0,3.6-0.9,4.2-2.4c1.8,0.8,2.7,2.9,1.9,4.8l-0.1,0.3c0,0.1,0,0.1,0,0.2c-1,2.2-3.2,3.7-5.6,3.8L109.2,141.6z"/>
<path class="st2" d="M124.7,125.9h6.4v8.7h5.6v7.2h-12.4v-2.1c1.4-2,1.4-4.6,0-6.5V126L124.7,125.9z"/>
<path class="st2" d="M103.6,128.8c1.3,0.7,2.8,1.3,4.2,1.8v-5H105l16.2-14.9c0,0,10.2-2.4,13.4,3.8c0.6,1.8,1.1,4.5-1.7,5.3
	c0.1-2.3-1.6-4.2-3.9-4.4l0,0c-1-0.1-2,0.1-2.8,0.6c-2.1,0.7-3.3,2.8-2.8,4.9c1.7,3.2,5.4,4.9,8.9,4c4.7-0.1,8.7-3.4,9.7-8
	c-0.1-3.7-1.7-7.1-4.5-9.5L124,92.8l-0.9-0.9l-39.2,33.7v15.7h24v-8.6C107.9,133,104,130.9,103.6,128.8
	C103.4,129.1,103.1,128.8,103.6,128.8z"/>
<path class="st2" d="M138.5,125.9h24.8v15.7l-38.6,34.1l-15.2-15.6c0,0-7.6-6.8-3.1-13.6c3.9-4.4,10.5-5.5,15.6-2.4
	c1.9,1.1,2.5,3.6,1.4,5.5c-0.1,0.1-0.1,0.2-0.2,0.3l0,0c-0.3,0.5-0.8,1-1.4,1.2c-2.4,1.2-5.2,0.4-6.7-1.8c-0.3-0.7-0.5-1.4-0.6-2.1
	c-3.6,0.3-4.6,11.9,11.7,9.1l15.9-14.8h-3.7V125.9z"/>
</svg>
