<?xml version="1.0" encoding="utf-8"?>
<!-- Generator: Adobe Illustrator 23.0.1, SVG Export Plug-In . SVG Version: 6.00 Build 0)  -->
<svg version="1.1" id="Layer_1" xmlns="http://www.w3.org/2000/svg" xmlns:xlink="http://www.w3.org/1999/xlink" x="0px" y="0px"
	 viewBox="0 0 104.1 101.4" style="enable-background:new 0 0 104.1 101.4;" xml:space="preserve">
<style type="text/css">
	.st0{fill:#47848F;}
	.st1{fill-rule:evenodd;clip-rule:evenodd;fill:#47848F;}
</style>
<title>logox</title>
<path class="st0" d="M87.8,51.2c7.4-8.5,9.9-16.9,6.4-22.9c-2.6-4.4-8.1-6.7-15.4-6.8c-0.6,0-1.2,0.4-1.2,1c0,0.6,0.4,1.1,1,1.2h0.2
	c6.6,0.1,11.3,2.1,13.4,5.7c2.9,4.9,0.6,12.5-6.2,20.3c-0.4,0.4-0.4,1.1,0.1,1.5c0,0,0,0,0,0l0,0C86.6,51.7,87.3,51.7,87.8,51.2
	L87.8,51.2z"/>
<path class="st0" d="M38,22.3c-10.1-2-18.1,0.1-21.3,6c-2.4,4.4-1.7,10.3,1.6,16.5c0.2,0.5,0.8,0.7,1.3,0.5c0,0,0,0,0,0h0.1
	c0.5-0.3,0.7-1,0.4-1.5c-3-5.6-3.6-10.7-1.7-14.3c2.7-4.9,9.8-6.8,19.2-4.9c0.6,0.1,1.1-0.3,1.2-0.9l0,0C39,23,38.6,22.5,38,22.3
	L38,22.3z"/>
<path class="st0" d="M22,53.9c4,5.4,8.9,10.2,14.4,14.2c13.9,10.2,29.3,13.9,37.5,8.9c0.5-0.3,0.7-1,0.4-1.5
	c-0.2-0.5-0.8-0.7-1.3-0.4h-0.1c-7.3,4.5-22,1-35.3-8.7c-5.3-3.8-10-8.5-13.9-13.8c-0.3-0.4-0.9-0.5-1.4-0.2l-0.1,0.1
	C21.7,52.7,21.7,53.4,22,53.9L22,53.9L22,53.9z"/>
<path class="st0" d="M84.7,74.2c0.2-3-2-5.6-5-5.8l0,0c-3-0.3-5.7,1.9-6,4.9c-0.2,3,2,5.6,5,5.8l0,0C81.7,79.5,84.3,77.3,84.7,74.2
	C84.7,74.3,84.7,74.3,84.7,74.2z"/>
<path class="st0" d="M64.3,22.1c-6.6,0.7-13,2.6-19,5.5c-16,7.6-27.8,20.7-28.2,31.3c-0.1,0.5,0.3,1.1,0.8,1.2c0,0,0.1,0,0.1,0l0,0
	c0.6-0.1,1.1-0.6,1.1-1.2l0,0c0.3-9.5,11.4-21.8,26.7-29.1c5.8-2.8,12.1-4.6,18.5-5.3c0.6-0.1,1-0.6,1-1.3c0-0.5-0.4-1-0.9-1.1
	L64.3,22.1L64.3,22.1z"/>
<path class="st0" d="M16.7,69.7c2.6,0.4,5.1-1.8,5.6-4.8s-1.2-5.9-3.8-6.3s-5.2,1.8-5.6,4.9C12.4,66.6,14.1,69.4,16.7,69.7
	L16.7,69.7z"/>
<path class="st0" d="M31.2,76c3.9,10.4,10.2,16.9,17.3,16.9c5.2,0,10-3.4,13.7-9.5c0.3-0.5,0.2-1.2-0.3-1.5l0,0
	c-0.5-0.3-1.3-0.2-1.6,0.4c-3.4,5.4-7.5,8.3-11.7,8.3c-5.9,0-11.5-5.7-15.1-15.4c-0.2-0.6-0.9-0.8-1.5-0.6
	C31.4,74.7,31.1,75.3,31.2,76L31.2,76L31.2,76L31.2,76z"/>
<path class="st0" d="M68.6,74.4c3.4-6.2,5.9-12.8,7.4-19.7c3.9-18.1,0.7-35.1-7.8-41c-0.5-0.4-1.2-0.3-1.6,0.3
	c-0.4,0.5-0.3,1.2,0.2,1.5l0,0l0,0c7.6,5.3,10.6,21.4,6.9,38.8c-1.4,6.7-3.8,13.1-7.1,19.1c-0.3,0.5-0.1,1.2,0.4,1.5c0,0,0,0,0,0
	l0,0C67.5,75.1,68.2,74.9,68.6,74.4L68.6,74.4z"/>
<path class="st0" d="M62.3,18.1c2.9,0.6,5.8-1.2,6.5-4.1c0.6-2.9-1.3-5.7-4.2-6.3h-0.1C61.6,7,58.7,8.8,58,11.8
	c-0.6,2.9,1.3,5.7,4.2,6.3c0,0,0,0,0,0L62.3,18.1z"/>
<path class="st0" d="M62.8,15.8c-1.7-0.3-2.8-1.9-2.5-3.6c0,0,0,0,0,0v-0.1c0.4-1.7,2.1-2.8,3.8-2.4c1.7,0.3,2.8,1.9,2.5,3.6v0.1
	l0,0C66.2,15.1,64.5,16.2,62.8,15.8z"/>
<path class="st1" d="M42.2,51.3c1.2,0.8,2.7,1.3,4.2,1.2c1.8-0.1,1.6-1,1.5-1.4c-0.3-0.3-0.7-0.4-1.1-0.2v1.2
	c-0.8,0.2-1.7,0.2-2.5-0.1v-2.3h4.6c0.7,0.1,1.2,0.7,1.2,1.4v0.4c-0.1,0.6-0.8,1.9-3.2,2c-1.6-0.1-3.1-0.6-4.3-1.5
	C42.5,51.8,42.3,51.6,42.2,51.3C42,51.3,42,51.2,42.2,51.3L42.2,51.3z"/>
<path class="st1" d="M44.3,56.4v-3.3c0.8,0.4,1.6,0.5,2.5,0.5v1.6c0.8,0.1,1.4-0.5,1.5-1.3c0,0,0,0,0,0c0-0.1,0-0.2,0-0.3
	c0.2,0,1.5-0.4,1.7-1c0.8,0.3,1.1,1.2,0.8,2l-0.1,0.1c0,0,0,0.1,0,0.1c-0.4,0.9-1.3,1.5-2.3,1.6L44.3,56.4z"/>
<path class="st1" d="M50.8,49.9h2.7v3.6h2.3v3h-5.2v-0.9c0.6-0.8,0.6-1.9,0-2.7v-3L50.8,49.9z"/>
<path class="st1" d="M42,51.1c0.6,0.3,1.1,0.6,1.8,0.7v-2.1h-1.2l6.7-6.2c0,0,4.3-1,5.6,1.6c0.2,0.7,0.5,1.9-0.7,2.2
	c0-0.9-0.7-1.7-1.6-1.8l0,0c-0.4,0-0.8,0.1-1.2,0.3c-0.9,0.3-1.4,1.2-1.2,2.1c0.7,1.4,2.2,2,3.7,1.7c2,0,3.6-1.4,4.1-3.3
	c0-1.5-0.7-3-1.9-4l-5.7-6.1l-0.4-0.4l-16.4,14v6.5h10v-3.6C43.8,52.8,42.2,52,42,51.1C41.9,51.2,41.8,51.1,42,51.1z"/>
<path class="st1" d="M56.5,49.9h10.3v6.5L50.8,70.6l-6.3-6.5c0,0-3.2-2.8-1.3-5.7c1.6-1.9,4.4-2.3,6.5-1c0.8,0.5,1.1,1.5,0.6,2.3
	c0,0,0,0.1-0.1,0.1l0,0c-0.1,0.2-0.3,0.4-0.6,0.5c-1,0.5-2.2,0.2-2.8-0.7c-0.1-0.3-0.2-0.6-0.2-0.9c-1.5,0.1-1.9,5,4.9,3.8l6.6-6.2
	h-1.6V49.9z"/>
</svg>
